<?xml version="1.0" standalone="no"?>
<!DOCTYPE svg PUBLIC "-//W3C//DTD SVG 20010904//EN"
 "http://www.w3.org/TR/2001/REC-SVG-20010904/DTD/svg10.dtd">
<svg version="1.0" xmlns="http://www.w3.org/2000/svg"
 width="111.000000pt" height="32.000000pt" viewBox="0 0 111.000000 32.000000"
 preserveAspectRatio="xMidYMid meet">

<g transform="translate(0.000000,32.000000) scale(0.100000,-0.100000)"
fill="#000000" stroke="none">
<path d="M127 313 c-3 -5 6 -14 19 -20 22 -10 25 -9 22 5 -3 18 -33 29 -41 15z"/>
<path d="M132 252 c-19 -3 -21 -6 -11 -18 12 -15 49 -20 49 -6 -1 17 -16 27
-38 24z"/>
<path d="M180 205 c0 -8 2 -15 4 -15 2 0 6 7 10 15 3 8 1 15 -4 15 -6 0 -10
-7 -10 -15z"/>
<path d="M590 210 c0 -5 5 -10 10 -10 6 0 10 5 10 10 0 6 -4 10 -10 10 -5 0
-10 -4 -10 -10z"/>
<path d="M940 188 c0 -25 -3 -29 -12 -20 -15 15 -72 16 -99 2 -11 -6 -26 -25
-33 -43 -11 -25 -15 -28 -15 -11 -2 58 -97 86 -139 41 -60 -64 8 -170 89 -137
41 18 36 26 -14 22 -31 -3 -49 1 -60 13 -29 29 -19 35 58 35 69 0 76 -2 84
-23 18 -47 67 -66 111 -43 26 12 30 12 30 0 0 -8 5 -14 10 -14 6 0 10 42 10
105 0 63 -4 105 -10 105 -5 0 -10 -14 -10 -32z m-198 -45 c29 -26 21 -33 -42
-33 -33 0 -60 3 -60 7 0 3 7 15 17 25 20 22 61 23 85 1z m178 -3 c11 -11 20
-29 20 -40 0 -11 -9 -29 -20 -40 -55 -55 -137 13 -89 73 25 32 61 35 89 7z"/>
<path d="M980 210 c0 -5 5 -10 10 -10 6 0 10 5 10 10 0 6 -4 10 -10 10 -5 0
-10 -4 -10 -10z"/>
<path d="M1020 210 c0 -5 5 -10 10 -10 6 0 10 5 10 10 0 6 -4 10 -10 10 -5 0
-10 -4 -10 -10z"/>
<path d="M42 170 c0 -25 5 -63 13 -85 l13 -40 -5 50 c-3 28 -9 66 -13 85 -8
35 -8 35 -8 -10z"/>
<path d="M96 171 c-17 -19 -15 -41 3 -41 8 0 23 52 17 58 -2 1 -11 -7 -20 -17z"/>
<path d="M205 170 c-12 -39 -36 -62 -51 -49 -30 25 -43 -13 -23 -70 9 -24 14
-29 24 -21 9 8 14 6 19 -5 6 -17 61 -21 71 -5 4 6 11 24 15 41 8 26 6 32 -10
36 -13 4 -21 17 -26 42 -9 56 -10 58 -19 31z"/>
<path d="M345 160 c4 -13 20 -51 35 -84 l28 -61 25 55 25 55 25 -55 24 -55 27
60 c45 97 47 105 33 105 -8 0 -24 -25 -37 -56 l-23 -56 -21 50 c-12 28 -24 53
-27 56 -3 3 -16 -19 -29 -50 l-23 -56 -22 53 c-23 54 -54 84 -40 39z"/>
<path d="M590 95 c0 -50 4 -85 10 -85 6 0 10 35 10 85 0 50 -4 85 -10 85 -6 0
-10 -35 -10 -85z"/>
<path d="M980 95 c0 -50 4 -85 10 -85 6 0 10 35 10 85 0 50 -4 85 -10 85 -6 0
-10 -35 -10 -85z"/>
<path d="M1020 95 c0 -50 4 -85 10 -85 6 0 10 35 10 85 0 50 -4 85 -10 85 -6
0 -10 -35 -10 -85z"/>
</g>
</svg>
