<?xml version="1.0" standalone="no"?>
<!DOCTYPE svg PUBLIC "-//W3C//DTD SVG 20010904//EN"
 "http://www.w3.org/TR/2001/REC-SVG-20010904/DTD/svg10.dtd">
<svg version="1.0" xmlns="http://www.w3.org/2000/svg"
 width="173.000000pt" height="291.000000pt" viewBox="0 0 173.000000 291.000000"
 preserveAspectRatio="xMidYMid meet">

<g transform="translate(0.000000,291.000000) scale(0.100000,-0.100000)"
fill="#000000" stroke="none">
<path d="M494 2872 c-6 -4 -19 -41 -28 -82 -10 -41 -53 -192 -96 -335 -133
-443 -140 -470 -140 -532 0 -91 25 -149 90 -214 66 -67 169 -122 278 -150 41
-10 77 -20 78 -22 1 -1 -27 -36 -63 -77 -35 -41 -90 -106 -121 -145 -31 -38
-113 -137 -182 -219 -69 -82 -135 -162 -148 -177 -18 -23 -32 -29 -61 -29 -20
0 -46 -7 -57 -15 -19 -15 -19 -16 3 -31 l23 -16 -23 -18 c-34 -28 -11 -43 62
-38 34 1 61 2 61 0 0 -1 -6 -11 -12 -22 -10 -16 -10 -23 3 -36 15 -14 21 -14
68 7 28 12 53 20 54 18 2 -2 7 -17 12 -33 14 -41 32 -43 52 -7 19 33 43 41 43
15 0 -9 -16 -100 -35 -204 -37 -201 -71 -437 -64 -445 3 -2 34 -9 69 -14 85
-14 226 -14 291 0 l52 11 -7 112 c-13 239 -17 445 -9 526 l8 85 22 -150 c13
-82 42 -245 65 -362 l42 -212 75 -7 c157 -16 378 -3 458 27 22 8 21 10 -37
139 -86 188 -241 552 -238 556 2 1 21 -1 43 -6 108 -25 181 -2 280 90 91 85
120 91 171 35 36 -40 65 -44 94 -15 30 30 25 73 -11 115 -43 48 -76 64 -148
69 -68 5 -76 1 -171 -90 -55 -53 -111 -84 -150 -84 -31 0 -126 36 -161 61 -51
36 -68 89 -75 238 -4 72 -5 131 -2 131 3 0 24 -29 47 -64 47 -72 136 -161 176
-176 64 -24 179 -3 308 57 82 39 107 62 107 101 0 15 14 36 36 55 42 37 64 76
64 112 0 21 -5 25 -29 25 -15 0 -40 -9 -54 -20 -35 -28 -40 -25 -17 12 25 42
35 109 21 137 -22 41 -72 17 -86 -41 -9 -36 -25 -35 -50 4 -28 44 -49 55 -70
38 -14 -11 -16 -25 -12 -66 l5 -52 -70 -56 c-38 -31 -74 -56 -79 -56 -31 0
-185 108 -248 174 -24 25 -30 37 -20 39 171 48 251 91 348 187 143 141 209
348 199 617 -6 147 -33 248 -93 348 -39 65 -102 135 -141 155 -21 12 -27 11
-49 -10 -14 -13 -41 -66 -61 -119 -20 -53 -40 -100 -44 -104 -4 -5 -32 -1 -61
8 -37 12 -98 18 -197 20 l-144 4 -30 48 c-48 76 -88 123 -131 154 -40 29 -63
35 -83 21z m73 -31 c37 -27 103 -105 147 -175 l18 -28 -39 -31 c-57 -46 -127
-122 -204 -223 l-69 -91 14 -40 14 -40 -47 -34 c-68 -50 -106 -131 -106 -225
0 -62 3 -75 28 -107 58 -76 139 -90 241 -44 90 41 160 34 211 -23 26 -29 62
-47 121 -60 66 -15 131 2 183 47 113 96 113 246 1 360 l-41 41 51 42 50 42 0
65 c0 77 -17 191 -36 246 -17 47 -15 51 17 37 30 -14 82 -82 115 -151 31 -64
64 -188 64 -241 0 -21 4 -38 10 -38 5 0 32 46 61 103 l51 104 -17 89 c-21 113
-61 216 -114 293 -22 34 -41 65 -41 70 0 21 21 21 54 -1 77 -53 156 -179 193
-309 24 -88 24 -354 0 -451 -65 -261 -224 -429 -472 -499 -113 -32 -295 -32
-415 0 -228 61 -370 196 -370 352 0 46 55 256 87 334 42 101 161 249 235 293
22 13 28 24 28 50 0 47 -26 145 -56 205 -37 78 -31 85 33 38z m422 -211 c41
-6 78 -13 83 -18 16 -16 49 -170 55 -257 l6 -91 -52 -43 -52 -43 -57 25 c-95
42 -141 51 -272 51 -91 1 -139 -4 -179 -17 -29 -9 -57 -14 -61 -12 -5 3 -11
19 -15 36 -8 36 9 66 118 195 83 100 167 170 212 177 55 8 139 6 214 -3z
m-481 -576 c16 -11 22 -25 22 -51 0 -32 -2 -35 -22 -28 -31 11 -78 11 -105 2
-21 -8 -23 -5 -23 22 0 61 74 93 128 55z m501 -50 c21 -26 28 -64 14 -77 -3
-4 -17 0 -31 9 -23 15 -48 15 -99 -1 -20 -6 -23 -4 -23 17 0 43 36 78 80 78
30 0 43 -6 59 -26z m-52 -260 c-3 -3 -12 -4 -19 -1 -8 3 -5 6 6 6 11 1 17 -2
13 -5z m638 -242 c-1 -35 -7 -57 -19 -71 -24 -26 -32 -26 -32 -2 0 11 3 18 7
15 11 -7 32 65 26 92 -3 16 0 23 7 21 6 -2 11 -26 11 -55z m-143 31 c25 -28
42 -97 30 -119 -9 -16 -12 -13 -18 24 -4 24 -17 56 -30 72 -13 15 -24 31 -24
34 0 13 28 5 42 -11z m-423 -69 c38 -33 70 -65 70 -72 1 -14 -83 -102 -98
-102 -6 0 -22 17 -36 37 -20 31 -25 34 -25 16 0 -26 -17 -33 -86 -33 -50 0
-55 -2 -64 -27 -25 -70 -26 -70 -38 -46 -9 17 -9 28 0 48 10 22 9 29 -10 47
-18 19 -25 20 -48 9 -24 -11 -26 -15 -20 -51 3 -22 2 -41 -4 -45 -6 -4 -10 5
-10 20 0 34 -17 65 -35 65 -18 0 -19 14 -5 41 7 11 7 19 1 19 -5 0 -15 -16
-21 -35 -13 -40 -16 -41 -41 -19 -18 16 -17 18 11 54 16 21 49 59 74 86 l43
49 136 -1 136 -2 70 -58z m391 -49 c17 -21 8 -27 -24 -19 -21 5 -24 9 -15 20
15 18 24 18 39 -1z m250 -27 c0 -27 -24 -59 -61 -82 -42 -26 -41 -7 2 33 21
21 39 45 39 54 0 10 5 17 10 17 6 0 10 -10 10 -22z m-125 -8 c11 -12 18 -35
18 -59 0 -68 -26 -85 -38 -24 -4 20 -13 46 -21 57 -10 14 -11 23 -2 33 14 18
22 16 43 -7z m-97 -22 c26 -19 42 -40 42 -56 0 -9 -13 -3 -36 17 -20 18 -49
34 -65 38 -28 5 -35 13 -23 25 7 8 61 -8 82 -24z m-303 12 c9 -15 81 -50 101
-50 9 0 33 12 52 27 24 18 37 23 40 15 8 -25 52 -70 81 -82 16 -6 35 -25 41
-41 7 -16 24 -38 37 -49 l24 -19 -38 -19 c-51 -26 -156 -58 -220 -67 -39 -5
-60 -3 -87 10 -35 17 -166 148 -166 166 0 13 103 115 117 117 6 1 15 -3 18 -8z
m-575 -73 c0 -5 -16 -51 -35 -102 -31 -84 -95 -291 -125 -407 -12 -46 -14 -48
-48 -48 -63 0 -115 22 -165 72 -26 26 -47 54 -47 62 0 8 47 68 103 135 57 66
130 153 162 193 32 40 72 87 88 105 27 29 30 30 48 15 10 -9 19 -20 19 -25z
m168 5 c4 -28 -24 -40 -45 -19 -21 21 -9 49 19 45 15 -2 24 -11 26 -26z m-98
-33 c0 -22 -5 -48 -12 -58 -15 -24 -4 -51 21 -51 19 0 35 25 26 41 -8 12 24
59 40 59 15 0 25 -22 25 -53 0 -16 3 -18 12 -9 8 8 15 8 24 1 10 -8 13 -6 12
8 -1 10 4 35 11 56 l13 37 64 0 64 0 0 -72 c0 -40 3 -96 6 -124 6 -50 6 -51
-27 -64 -43 -17 -141 -83 -190 -127 l-38 -35 -96 82 c-52 45 -95 86 -95 91 0
10 87 245 95 259 3 5 14 6 25 3 16 -4 20 -14 20 -44z m25 -79 c0 -8 -8 -16
-17 -18 -13 -2 -18 3 -18 18 0 15 5 20 18 18 9 -2 17 -10 17 -18z m841 -178
c-3 -20 -6 -45 -6 -54 0 -10 -7 -18 -15 -18 -8 0 -46 -29 -83 -65 -82 -77
-121 -95 -202 -95 l-60 0 0 43 c0 24 -5 48 -12 55 -10 10 -2 11 34 6 65 -9
104 8 177 76 35 33 72 62 82 65 11 4 19 10 19 14 0 4 16 8 36 9 l37 1 -7 -37z
m48 -9 c-7 -54 -11 -63 -25 -63 -12 0 -11 40 2 79 17 48 31 38 23 -16z m-520
-153 c79 -190 79 -188 10 -189 -31 -1 -31 -2 -44 -76 -7 -41 -14 -75 -16 -75
-2 0 -42 30 -89 67 -64 50 -95 69 -123 71 -20 2 -40 7 -43 10 -4 4 -11 50 -17
102 l-10 95 31 33 c61 64 185 144 215 139 7 -1 46 -81 86 -177z m-441 88 c74
-66 92 -88 90 -108 -1 -14 -5 -64 -8 -112 l-7 -88 -76 0 -77 0 -35 -60 c-19
-33 -38 -60 -41 -60 -4 0 -10 30 -14 68 -4 37 -12 70 -18 74 -12 7 8 114 49
258 31 106 32 110 39 110 4 0 48 -37 98 -82z m481 -35 c41 -34 46 -42 46 -80
0 -36 -2 -40 -20 -36 -10 3 -25 15 -33 27 -22 35 -57 126 -48 126 5 0 29 -17
55 -37z m-917 -68 c30 -45 7 -53 -24 -8 -13 19 -23 38 -23 43 0 18 25 -1 47
-35z m87 -96 c-8 -14 -30 -11 -44 6 -19 23 -2 37 25 19 14 -9 22 -20 19 -25z
m91 -29 c0 -7 -6 -15 -12 -17 -8 -3 -13 4 -13 17 0 13 5 20 13 18 6 -3 12 -11
12 -18z m803 -107 c76 -170 202 -460 202 -466 0 -3 -26 -11 -57 -19 -62 -14
-389 -18 -433 -6 -22 6 -27 17 -43 95 -15 74 -77 411 -77 420 0 2 16 3 36 3
30 0 52 -13 129 -75 52 -41 96 -75 99 -75 2 0 10 34 17 76 14 81 23 92 80 93
21 1 29 -7 47 -46z m-724 -65 l13 -83 40 65 c63 100 59 97 134 92 l65 -4 11
-251 c6 -139 9 -254 7 -256 -10 -11 -233 -12 -300 -1 l-76 13 6 66 c6 61 42
273 67 399 6 30 13 51 16 48 3 -3 11 -42 17 -88z"/>
<path d="M765 1160 c-3 -6 1 -7 9 -4 18 7 21 14 7 14 -6 0 -13 -4 -16 -10z"/>
</g>
</svg>
